<?xml version="1.0" encoding="UTF-8" standalone="no"?>
<svg
   xmlns:dc="http://purl.org/dc/elements/1.1/"
   xmlns:cc="http://creativecommons.org/ns#"
   xmlns:rdf="http://www.w3.org/1999/02/22-rdf-syntax-ns#"
   xmlns:svg="http://www.w3.org/2000/svg"
   xmlns="http://www.w3.org/2000/svg"
   xmlns:sodipodi="http://sodipodi.sourceforge.net/DTD/sodipodi-0.dtd"
   xmlns:inkscape="http://www.inkscape.org/namespaces/inkscape"
   width="640"
   height="480"
   id="svg2"
   version="1.1"
   inkscape:version="0.91 r13725"
   sodipodi:docname="lvl0.svg">
  <defs
     id="defs20" />
  <sodipodi:namedview
     pagecolor="#ffffff"
     bordercolor="#666666"
     borderopacity="1"
     objecttolerance="10"
     gridtolerance="10"
     guidetolerance="10"
     inkscape:pageopacity="0"
     inkscape:pageshadow="2"
     inkscape:window-width="1412"
     inkscape:window-height="691"
     id="namedview18"
     showgrid="false"
     inkscape:zoom="0.48"
     inkscape:cx="-47.649573"
     inkscape:cy="829.1158"
     inkscape:window-x="0"
     inkscape:window-y="0"
     inkscape:window-maximized="0"
     inkscape:current-layer="g4" />
  <!-- Created with SVG-edit - http://svg-edit.googlecode.com/ -->
  <metadata
     id="metadata17">image/svg+xml<rdf:RDF>
  <cc:Work
     rdf:about="">
    <dc:format>image/svg+xml</dc:format>
    <dc:type
       rdf:resource="http://purl.org/dc/dcmitype/StillImage" />
  </cc:Work>
</rdf:RDF>
</metadata>
  <g
     id="g4"
     display="inline"
     transform="translate(33.032258,12.387097)"
     style="display:inline">
    <title
       id="title6">Layer 1</title>
    <rect
       stroke-miterlimit="4"
       id="svg_1"
       height="75.462677"
       width="27.462681"
       y="-124.98698"
       x="772.12366"
       style="fill:#00ff00;stroke:#000000;stroke-width:4.53731966;stroke-miterlimit:4" />
    <path
       id="svg_2"
       d=""
       inkscape:connector-curvature="0"
       style="fill:#ff0000;stroke:#000000;stroke-width:7.5" />
    <path
       id="svg_3"
       d=""
       inkscape:connector-curvature="0"
       style="fill:#ff0000;stroke:#000000;stroke-width:7.5" />
    <path
       id="svg_4"
       d="m -616.30472,211.76976 288,0 191.99999,-96 479.99997,0 0,383.99996 -479.99997,0 -479.99999,0 0,-287.99996 z"
       stroke-linecap="null"
       stroke-linejoin="null"
       inkscape:connector-curvature="0"
       style="fill:#000000;stroke:#000000;stroke-width:7.5" />
    <rect
       y="157.23814"
       x="-171.9565"
       height="94.970116"
       width="828.1283"
       id="rect3400"
       style="fill:#000000;fill-rule:evenodd;stroke:#000000;stroke-width:7.5" />
    <rect
       y="60.72319"
       x="656.68671"
       height="192"
       width="96"
       id="rect3402"
       style="fill:#000000" />
    <rect
       y="12.723192"
       x="752.68677"
       height="96"
       width="192"
       id="rect3404"
       style="fill:#000000" />
    <rect
       y="108.7232"
       x="944.68677"
       height="240"
       width="144"
       id="rect3406"
       style="fill:#000000" />
    <path
       d="m 251.73527,-23.02695 96,143.99999 -3.74145,145.24004 -107.28645,135.7995 -139.288037,41.3235 -162.30602,-60.0705 -82.342503,-119.7015 6.97499,-172.92554 88.396529,-115.30244 166.618441,-46.80285 136.9745,48.4398 z"
       id="path3428"
       inkscape:connector-curvature="0"
       style="fill:#000000" />
    <path
       id="path3430"
       d="M 1054.461,120.48178 1150.4602,264.48176 1925.9601,-29.518214 1054.461,120.48178 Z"
       inkscape:connector-curvature="0"
       style="fill:#000000;fill-rule:evenodd;stroke:#000000;stroke-width:7.5" />
    <rect
       style="fill:#ff00ff"
       id="rect4168"
       width="208.02628"
       height="17.518002"
       x="-755.47791"
       y="102.76073" />
    <rect
       style="fill:#ff00ff"
       id="rect4170"
       width="229.92375"
       height="15.32825"
       x="977.72736"
       y="-11.876501" />
    <path
       style="fill:#000000;fill-rule:evenodd;stroke:#000000;stroke-width:1.5px;stroke-linecap:butt;stroke-linejoin:miter;stroke-opacity:1"
       d="m -720.99295,212.51528 -94.15925,127.00549 -124.81576,78.831 -131.38504,54.74375 -164.2313,37.22576 -205.8365,24.08724 -129.1953,6.56925 4.3796,-85.40025 -76.6413,2.18976 -2.1897,78.831 -100.7286,-10.94876 37.2258,-98.53874 -87.59,-37.22574 -17.518,131.38498 -63.5028,19.70775 -19.7078,-205.83649 -127.0054,4.37949 81.0207,216.78525 -131.385,-26.277 -4.3794,-273.71874 -131.385,-4.3795 13.1385,350.35999 197.0775,43.795 1110.20329,-28.46675 z"
       id="path4172"
       inkscape:connector-curvature="0" />
    <path
       style="fill:#000000;fill-rule:evenodd;stroke:#000000;stroke-width:1.5px;stroke-linecap:butt;stroke-linejoin:miter;stroke-opacity:1"
       d="m -2242.8693,236.60252 -201.457,-6.56924 -151.0928,-19.70776 -168.6108,-54.74374 -153.2824,-102.91825 -131.385,-146.713253 -100.7285,-188.318507 -83.2105,-297.806 -30.6566,-299.99576 -137.9542,-8.75896 65.6925,1372.97323 1062.0288,-105.108 z"
       id="path4174"
       inkscape:connector-curvature="0" />
    <path
       style="fill:#000000;fill-rule:evenodd;stroke:#000000;stroke-width:1.5px;stroke-linecap:butt;stroke-linejoin:miter;stroke-opacity:1"
       d="m -278.66346,-142.22424 -324.08298,4.37952 -2.18976,-107.29776 -100.72851,6.56925 13.13851,100.72851 -258.39048,2.18973 54.74372,-225.54424 -155.47224,4.37951 32.8462,214.59548 -208.0262,13.1385 -13.1385,-297.80598 -232.1136,-151.09276 98.5387,462.03724 -324.0829,-422.62174 -50.3643,199.26724 89.7798,359.119021 175.1799,43.795003 400.7244,-43.795003 821.15626,-91.9695 z"
       id="path4189"
       inkscape:connector-curvature="0" />
    <rect
       style="fill:#0000ff;fill-rule:evenodd;stroke:#000000;stroke-width:0.80000001px;stroke-linecap:butt;stroke-linejoin:miter;stroke-opacity:1"
       id="rect3479"
       width="147.62068"
       height="42.383301"
       x="336.82248"
       y="-307.94824" />
    <path
       style="fill:none;fill-rule:evenodd;stroke:#000000;stroke-width:3.01399994;stroke-linecap:butt;stroke-linejoin:miter;stroke-miterlimit:4;stroke-dasharray:none;stroke-opacity:1"
       d="m 236.86573,-309.2709 -57.42764,130.49938 -85.399853,78.920657 -222.388037,-79.839347 -57.29953,-98.41638 60.961,-98.0745 172.006982,34.71092 130.695228,-91.13121 z"
       id="path3481"
       inkscape:connector-curvature="0"
       sodipodi:nodetypes="ccccccccc" />
    <rect
       style="fill:none;stroke:#ff0000;stroke-width:3.65313339;stroke-miterlimit:4;stroke-dasharray:none;stroke-opacity:1"
       id="rect4307"
       width="1208.0487"
       height="851.79974"
       x="832.4704"
       y="-630.49481" />
    <rect
       y="-839.73724"
       x="-375.49643"
       height="1106.9587"
       width="1202.4865"
       id="rect4329"
       style="fill:none;stroke:#ff0000;stroke-width:5.12294197;stroke-miterlimit:4;stroke-dasharray:none;stroke-opacity:1" />
    <rect
       style="fill:none;stroke:#ff0000;stroke-width:5.29196644;stroke-miterlimit:4;stroke-dasharray:none;stroke-opacity:1"
       id="rect4333"
       width="1749.2653"
       height="811.99109"
       x="-2122.7283"
       y="-845.96918" />
    <rect
       y="-27.624666"
       x="-2300.7532"
       height="795.10754"
       width="1922.9501"
       id="rect4335"
       style="fill:none;stroke:#ff0000;stroke-width:5.49048138;stroke-miterlimit:4;stroke-dasharray:none;stroke-opacity:1" />
    <rect
       style="fill:none;stroke:#ff0000;stroke-width:5.49048138;stroke-miterlimit:4;stroke-dasharray:none;stroke-opacity:1"
       id="rect4337"
       width="1922.9501"
       height="795.10754"
       x="-2300.7532"
       y="-27.624666" />
    <rect
       y="-850.30835"
       x="-3445.7573"
       height="1231.7731"
       width="1316.3151"
       id="rect4339"
       style="fill:none;stroke:#ff0000;stroke-width:5.65403843;stroke-miterlimit:4;stroke-dasharray:none;stroke-opacity:1" />
    <rect
       y="-441.42404"
       x="326.26337"
       height="42.668251"
       width="120.82227"
       id="rect4343"
       style="fill:#0000ff;fill-rule:evenodd;stroke:#000000;stroke-width:0.51504892px;stroke-linecap:butt;stroke-linejoin:miter;stroke-opacity:1" />
    <path
       sodipodi:nodetypes="ccccc"
       inkscape:connector-curvature="0"
       id="path4345"
       d="m 436.93591,53.59652 222.40157,-727.62234 -941.79296,102.84447 940.30484,-102.90362 z"
       style="fill:none;fill-rule:evenodd;stroke:#000000;stroke-width:6;stroke-linecap:butt;stroke-linejoin:miter;stroke-miterlimit:4;stroke-dasharray:none;stroke-opacity:1" />
  </g>
</svg>
